<svg xmlns="http://www.w3.org/2000/svg" viewBox="0 0 100 100" width="32" height="32">
  <!-- Background gradient -->
  <defs>
    <linearGradient id="bg-gradient" x1="0%" y1="0%" x2="100%" y2="100%">
      <stop offset="0%" style="stop-color:#6C3483;stop-opacity:1" />
      <stop offset="50%" style="stop-color:#9B59B6;stop-opacity:1" />
      <stop offset="100%" style="stop-color:#3498DB;stop-opacity:1" />
    </linearGradient>
    <!-- Glow effect -->
    <filter id="glow" x="-20%" y="-20%" width="140%" height="140%">
      <feGaussianBlur stdDeviation="2" result="blur" />
      <feComposite in="SourceGraphic" in2="blur" operator="over" />
    </filter>
  </defs>
  
  <!-- Main background -->
  <rect width="100" height="100" rx="15" fill="url(#bg-gradient)" />
  
  <!-- Game controller shape -->
  <path d="M25,40 L75,40 C82,40 85,45 85,55 C85,65 80,70 70,70 L30,70 C20,70 15,65 15,55 C15,45 18,40 25,40 Z" 
        fill="#2C3E50" stroke="#ECF0F1" stroke-width="2" />
  
  <!-- D-pad -->
  <rect x="25" y="50" width="15" height="5" rx="1" fill="#ECF0F1" />
  <rect x="30" y="45" width="5" height="15" rx="1" fill="#ECF0F1" />
  
  <!-- Buttons -->
  <circle cx="70" cy="50" r="5" fill="#E74C3C" filter="url(#glow)" />
  <circle cx="60" cy="55" r="5" fill="#2ECC71" filter="url(#glow)" />
  <circle cx="60" cy="45" r="5" fill="#F1C40F" filter="url(#glow)" />
  <circle cx="50" cy="50" r="5" fill="#3498DB" filter="url(#glow)" />
  
  <!-- Power indicator -->
  <circle cx="50" cy="30" r="3" fill="#E74C3C">
    <animate attributeName="opacity" values="1;0.5;1" dur="2s" repeatCount="indefinite" />
  </circle>
</svg>